<svg xmlns="http://www.w3.org/2000/svg" viewBox="0 0 922.46 235.45"><defs><style>.cls-1{fill:#252526;}.cls-2{fill:#189cc2;}.cls-2,.cls-3,.cls-4{fill-rule:evenodd;}.cls-3{fill:#0a7fa7;}.cls-4{fill:#169eda;}</style></defs><title>paycation</title><g id="Layer_2" data-name="Layer 2"><g id="Layer_1-2" data-name="Layer 1"><path class="cls-1" d="M84.94,159.6c0,24.27-16.13,43.32-39.83,43.32-12.6,0-22.47-5.9-29.11-14.68v47.21H0v-118H16v13.49a35.63,35.63,0,0,1,29.11-14.67C68.77,116.27,84.94,135.32,84.94,159.6Zm-17.39-.29c0-15.53-10.64-28-25.83-28s-26.17,13.14-26.17,28,11,27.86,26.17,27.86S67.55,174.67,67.55,159.31Z"/><path class="cls-1" d="M183,117.45v84H167V188a35.64,35.64,0,0,1-29.11,14.62c-23.65,0-39.82-19-39.82-43.17s16.13-43.18,39.82-43.18A35.64,35.64,0,0,1,167,130.88V117.45Zm-16,41.86c0-14.86-11-27.86-26.17-27.86S115,144,115,159.31c0,15.53,10.63,28,25.82,28s26.17-13.14,26.17-28Z"/><path class="cls-1" d="M282.73,117.45l-49.39,118H217.16L232,201.06l-35-83.61h17.19l25.79,65.8,25.6-65.8Z"/><path class="cls-1" d="M287.62,159.31c0-23.47,16.88-43.56,43.05-43.56,11.65,0,19.75,3.21,26.33,8.44V142.6a34,34,0,0,0-25-11c-16.72,0-28.2,12.33-28.2,27.69,0,15.19,11.48,27.69,28.2,27.69a34,34,0,0,0,25-11v18.4c-6.58,5.24-14.68,8.45-26.33,8.45C304.5,202.87,287.62,182.78,287.62,159.31Z"/><path class="cls-1" d="M457,117.45v84H441V188a35.64,35.64,0,0,1-29.11,14.62c-23.65,0-39.82-19-39.82-43.17s16.13-43.18,39.82-43.18A35.64,35.64,0,0,1,441,130.88V117.45Zm-16,41.86c0-14.86-11-27.86-26.17-27.86S389,144,389,159.31c0,15.53,10.64,28,25.83,28S441,174.17,441,159.31Z"/><path class="cls-1" d="M518,132.45H501v69H485v-69H474v-15h11v-23h16v23h17Z"/><path class="cls-1" d="M533.65,90.26a10.81,10.81,0,1,1,10.8,11A10.52,10.52,0,0,1,533.64,91C533.64,90.78,533.64,90.52,533.65,90.26ZM536,117.45h16v84H536Z"/><path class="cls-1" d="M575.18,159.31c0-23.47,17.56-43.56,43-43.56s43.05,20.09,43.05,43.56-17.56,43.56-43.05,43.56S575.18,182.78,575.18,159.31Zm69.72-.17c0-14.86-10.47-27.52-26.67-27.52-15.87,0-26.85,12.66-26.85,27.52s11,27.86,26.85,27.86C634.43,187,644.9,174.17,644.9,159.14Z"/><path class="cls-1" d="M754,153.23v48.22H738V155.36c0-16.72-8.57-25.5-20.5-25.5-11.76,0-20.5,8.78-20.5,25.5v46.09H681v-84h16v11.76c4.89-7.89,13.83-13.43,25.47-13.43C739,115.78,754,128.2,754,153.23Z"/><path class="cls-2" d="M855.06,126.75l.4-.25c-6.16-18.42,19.48-49.56,67-101.63Q864.83,32,833.26,54.16,836.33,99.42,855.06,126.75Z"/><path class="cls-3" d="M855.06,126.75l.4-.25a15.82,15.82,0,0,1-.51-1.91q-9-34.23-7.3-79.08a121.9,121.9,0,0,0-14.39,8.65Q836.33,99.42,855.06,126.75Z"/><path class="cls-4" d="M870.89,153.16c10.16,5.2,18.57,7.89,26,6.6Q821.74,130.3,834.55,0c-18,3.54-32.61,11.77-42.79,25.5-8.86,12-6,27.15,1.25,47.42,1,2.72,2.15,17.38-3.92,22.83-2.23,2-5.82.41-8.92-1.61q-16-9.08-26.57.18Q724.4,89.42,711.3,89c12.45,3.92,26.83,8,43,12.66,6.89,2,12.81,6.74,17.47,13.91,9.54,14.66,36.57,22.62,62.76,26.39A119,119,0,0,1,870.89,153.16Z"/></g></g></svg>