<svg id="Layer_1" data-name="Layer 1" xmlns="http://www.w3.org/2000/svg" viewBox="0 0 922.74 235.27"><defs><style>.cls-1{fill:#18457e;}.cls-2,.cls-5{fill:#169eda;}.cls-3{fill:#189cc2;}.cls-3,.cls-4,.cls-5{fill-rule:evenodd;}.cls-4{fill:#0a7fa7;}</style></defs><title>paycation</title><path class="cls-1" d="M84.25,159.31c0,24.31-16,43.39-39.51,43.39-12.49,0-22.28-5.91-28.87-14.7v47.27H0V117.1H15.87v13.51c6.59-8.78,16.38-14.69,28.87-14.69C68.21,115.92,84.25,135,84.25,159.31Zm-16.38,0c0-15.53-10.64-28-25.83-28s-26.17,13.14-26.17,28,11,27.86,26.17,27.86S67.87,174.67,67.87,159.31Z"/><path class="cls-1" d="M183.17,117.1v84.42H167.3V188c-6.58,8.78-16.37,14.69-28.87,14.69-23.46,0-39.5-19.08-39.5-43.39s16-43.39,39.5-43.39c12.5,0,22.29,5.91,28.87,14.69V117.1ZM167.3,159.31c0-14.86-11-27.86-26.17-27.86s-25.82,12.5-25.82,27.86c0,15.53,10.63,28,25.82,28s26.17-13.14,26.17-28Z"/><path class="cls-1" d="M283.11,117.1,233.65,235.28H217.44l14.85-34.44L197.18,117.1H214.4L240.23,183l25.64-65.9Z"/><path class="cls-2" d="M287.5,159.31c0-23.47,16.88-43.56,43.05-43.56,11.65,0,19.75,3.21,26.33,8.44V142.6a34,34,0,0,0-25-11c-16.72,0-28.2,12.33-28.2,27.69,0,15.19,11.48,27.69,28.2,27.69a34,34,0,0,0,25-11v18.4c-6.58,5.24-14.68,8.45-26.33,8.45C304.38,202.87,287.5,182.78,287.5,159.31Z"/><path class="cls-2" d="M457.16,117.1v84.42H441.29V188c-6.58,8.78-16.37,14.69-28.87,14.69-23.46,0-39.5-19.08-39.5-43.39s16-43.39,39.5-43.39c12.5,0,22.29,5.91,28.87,14.69V117.1Zm-15.87,42.21c0-14.86-11-27.86-26.17-27.86s-25.83,12.5-25.83,27.86c0,15.53,10.64,28,25.83,28S441.29,174.17,441.29,159.31Z"/><path class="cls-2" d="M519,132.3H501.56v69.22H485.69V132.3H474.87V117.1h10.81V94.48h15.87V117.1h17.39Z"/><path class="cls-2" d="M534,90.26a10.81,10.81,0,1,1,10.8,11A10.52,10.52,0,0,1,534,91C534,90.78,534,90.52,534,90.26Zm2.9,26.84h15.87v84.42H536.87Z"/><path class="cls-2" d="M575.5,159.31c0-23.47,17.56-43.56,43-43.56s43,20.09,43,43.56-17.56,43.56-43,43.56S575.5,182.78,575.5,159.31Zm69.72-.17c0-14.86-10.47-27.52-26.67-27.52-15.87,0-26.85,12.66-26.85,27.52S602.7,187,618.55,187C634.75,187,645.22,174.17,645.22,159.14Z"/><path class="cls-2" d="M754.28,153.06v48.46H738.41V155.43c0-16.72-8.61-25.5-20.6-25.5-11.82,0-20.6,8.78-20.6,25.5v46.09H681.35V117.1h15.86v11.82c4.9-7.93,13.85-13.5,25.5-13.5C739.25,115.42,754.28,127.91,754.28,153.06Z"/><path class="cls-3" d="M855.38,126.75l.4-.25c-6.16-18.42,19.48-49.56,67-101.63Q865.15,32,833.58,54.16,836.66,99.42,855.38,126.75Z"/><path class="cls-4" d="M855.38,126.75l.4-.25a15.82,15.82,0,0,1-.51-1.91q-9-34.23-7.3-79.08a121.9,121.9,0,0,0-14.39,8.65Q836.66,99.42,855.38,126.75Z"/><path class="cls-5" d="M871.21,153.16c10.16,5.2,18.57,7.89,26,6.6Q822.06,130.3,834.87,0c-18,3.54-32.61,11.77-42.79,25.5-8.86,12-6,27.15,1.25,47.42,1,2.72,2.15,17.38-3.92,22.83-2.23,2-5.82.41-8.92-1.61q-16-9.08-26.57.18-29.2-4.91-42.3-5.32c12.45,3.92,26.83,8,43,12.66,6.89,2,12.81,6.74,17.47,13.91,9.54,14.66,36.57,22.62,62.76,26.39A119,119,0,0,1,871.21,153.16Z"/></svg>