<svg xmlns="http://www.w3.org/2000/svg" viewBox="0 0 838.25 286.3"><defs><style>.cls-1{fill:#fa3d16;}</style></defs><title>sushipay</title><g id="Layer_2" data-name="Layer 2"><g id="Layer_1-2" data-name="Layer 1"><path class="cls-1" d="M263.63,45.62,266,50.53c-1.08.43-2,.83-3,1.18q-32.34,12-64.7,23.85a13.08,13.08,0,0,0-7.87,7.19q-9.81,21.35-19.76,42.63a12.42,12.42,0,0,0-.44,9.75A103.55,103.55,0,0,1,176,167.31c.2,18.1-5.17,34.45-15.53,49.24a137.4,137.4,0,0,1-15.73,18.07q-22.71,22.75-45.49,45.45a33.09,33.09,0,0,1-5.79,4.62,9.87,9.87,0,0,1-10.89-.05A25,25,0,0,1,77.88,281c-17.28-17.23-34.57-34.43-51.72-51.78C15.67,218.6,7.76,206.33,3.37,191.93A81,81,0,0,1,.63,158.48a96.82,96.82,0,0,1,13.11-39C23.68,102.92,38.06,91.71,56,85c11.32-4.22,23-6.68,35.14-6.27a86.93,86.93,0,0,1,35.26,8.93c.85.41,1.63,1,2.91,1.75C118,94.48,107,99.17,96,104s-22.26,9.66-33.39,14.5-22.08,9.6-33,14.33a3.24,3.24,0,0,0-.1.78c.54,3.43,1.21,3.86,4.42,2.59q22.61-8.91,45.21-17.86l179.76-71C260.38,46.74,261.89,46.24,263.63,45.62ZM87.85,217.17a48.21,48.21,0,0,0,48.41-47.74c.23-25.08-20-48.33-47.71-48.52a48.13,48.13,0,1,0-.7,96.26ZM187.32,80.31l-.43-.56c-14.8,5.33-29.57,10.75-44.64,16.31.77.92,1.3,1.59,1.87,2.23q7.17,8.07,14.34,16.13c2.16,2.41,2.36,5.13,1.37,8-.36,1.06-.76,2.11-1.17,3.15q-17.26,43.92-34.54,87.85c-1.6,4.09-3.23,8.17-4.82,12.26-.64,1.67-.46,2.07,1.07,2.84a2.06,2.06,0,0,0,3.08-.75,10.52,10.52,0,0,0,1-1.92q30.24-69.69,60.44-139.37C185.76,84.48,186.51,82.39,187.32,80.31Z"/><path class="cls-1" d="M540.73,218.58H522.89c-.08-1-.23-2-.23-3q0-14.28,0-28.55v-3.22h-29c-.05,1-.13,1.9-.13,2.83q0,14.52,0,29v2.93H475c-.05-.9-.14-1.82-.14-2.74q0-15,0-30c0-.93-.1-1.87-.17-3h-8.89c-.7-1.88-.87-11.25-.31-14.72,1.43,0,2.92-.08,4.4-.1s3,0,4.85,0c.25-3.12.1-6.06.13-9s0-5.76,0-8.64V133c1.9-.52,14.26-.67,18.56-.24,0,.87.13,1.8.13,2.72q0,14.5,0,29c0,.94.09,1.88.14,3h29V132.69h18.09Z"/><path class="cls-1" d="M306.43,132.22a8.34,8.34,0,0,1,1.11-.16h17.81c.07.91.17,1.75.17,2.59,0,15.67,0,31.35,0,47a53.52,53.52,0,0,0,.86,8.56c1.12,6.67,8.5,12.21,14.33,12,4.4-.15,8.56-.33,12.13-3.4a13.77,13.77,0,0,0,4.88-9,65.06,65.06,0,0,0,.52-7.89c0-15.91,0-31.83,0-47.75,0-.55.06-1.11.11-2,6.14-.09,12.26,0,18.66,0,.06,1.07.17,2,.17,2.91q0,20.76,0,41.51c0,4.32.07,8.64,0,13a45.15,45.15,0,0,1-.63,7.16,22.94,22.94,0,0,1-12.15,16.92c-8.18,4.41-16.89,6.76-26.27,5.71a67,67,0,0,1-9.89-1.67A30.48,30.48,0,0,1,310,204.42a22.38,22.38,0,0,1-3.57-11c-.17-2.79-.18-5.6-.18-8.39q0-24.84,0-49.68C306.29,134.3,306.38,133.29,306.43,132.22Z"/><path class="cls-1" d="M755.49,218.65c-.9.09-1.44.2-2,.2-4.56,0-9.12,0-13.68,0a2.73,2.73,0,0,1-2.91-1.86c-2-4.52-4.24-9-6.25-13.48a3.08,3.08,0,0,0-3.29-2.08q-13.32.12-26.64,0a3,3,0,0,0-3.23,2.13c-1.9,4.58-4,9.08-5.92,13.63a2.21,2.21,0,0,1-2.3,1.64c-5.27-.05-10.55,0-15.83,0a6,6,0,0,1-1-.22c.26-.77.46-1.5.75-2.2q14-34,28-68.06c.65-1.59,1.27-3.19,2.06-5.2-5.92-.32-11.4,0-17.2-.23-.06-4.29-.09-8.4,0-12.47,1.88-.53,30.37-.71,34.35-.22ZM714,162.92c-1.6,2.16-9.14,21.69-9.19,23.48,2.47.5,16.73.4,18.72-.2C720.45,178.46,717.31,170.77,714,162.92Z"/><path class="cls-1" d="M595.39,218.46V189.64h-9.1c-.61-2-.71-13.93-.18-17l9.34-.23c.06-1.18.15-2.2.15-3.21q0-16.68,0-33.35c0-1,.1-2,.15-3.17.79-.08,1.41-.18,2-.18,12,0,24-.06,36,0a37,37,0,0,1,12.44,2.19c10.37,3.74,16.19,11,17,22.1a39.57,39.57,0,0,1-1.77,15.37C659,179.61,654,184.33,646.85,187a31.61,31.61,0,0,1-10.8,1.93c-7.35.07-14.71,0-22.07,0h-2.9c-.14,5.1,0,10-.06,14.79s0,9.71,0,14.72Zm15.74-46.22a12,12,0,0,0,1.71.27c7.18,0,14.37,0,21.56,0a16.22,16.22,0,0,0,7.18-1.56,9.59,9.59,0,0,0,5.76-7.43,34.3,34.3,0,0,0,.39-4,9.73,9.73,0,0,0-3.45-7.84,14.16,14.16,0,0,0-9.7-3.47c-7.19-.08-14.37,0-21.56,0a16.64,16.64,0,0,0-1.89.22Z"/><path class="cls-1" d="M227.3,206.36,239.65,195c1.62,1.24,3.1,2.31,4.51,3.47,3.81,3.15,8.32,4.65,13.07,5.57,5.32,1,10.5.22,15.58-1.39a12.61,12.61,0,0,0,6.25-4.25,7.49,7.49,0,0,0-.75-10.58,14,14,0,0,0-6.9-3.64c-6.87-1.42-13.75-2.79-20.6-4.31a42.61,42.61,0,0,1-11.75-4.69c-14.68-8.34-12.34-25.67-3.65-33.66a32.08,32.08,0,0,1,16.39-7.93c16.19-2.89,31.13.14,44.54,9.88.37.27.7.59,1.27,1.06l-12.45,9.63c-.65-.46-1.17-.8-1.66-1.19-4.64-3.71-10-5.47-15.84-6.22a31.72,31.72,0,0,0-13.5,1,16.7,16.7,0,0,0-4.72,2.26,7.72,7.72,0,0,0-.15,12.53,16.62,16.62,0,0,0,7,3c3.91.78,7.87,1.29,11.8,2,3.69.65,7.39,1.29,11,2.14a29.08,29.08,0,0,1,12.74,6.89,17.78,17.78,0,0,1,6,13.85c0,10.74-5.12,18.36-14.32,23.47a39.75,39.75,0,0,1-17.18,4.73,90.82,90.82,0,0,1-13.4-.21c-6-.56-11.53-3-16.91-5.73a32.08,32.08,0,0,1-7.87-5.4C228,207.06,227.75,206.83,227.3,206.36Z"/><path class="cls-1" d="M385.39,206.65,398,195c1.37,1,2.73,2,4,3,5.49,4.54,11.94,6.3,18.9,6.42a31.06,31.06,0,0,0,11-2.06,12.15,12.15,0,0,0,5.56-4,7.51,7.51,0,0,0-.8-10.57,14,14,0,0,0-6.92-3.62c-6.87-1.42-13.75-2.79-20.6-4.32a42.15,42.15,0,0,1-11.74-4.7c-14.65-8.35-12.31-25.68-3.59-33.67a32.31,32.31,0,0,1,15.7-7.76,57.09,57.09,0,0,1,33.38,3,62.36,62.36,0,0,1,12.82,7.42c-1,1.48-9.51,8.21-12.36,9.83a6.16,6.16,0,0,1-.76-.46c-5.15-4.33-11.18-6.27-17.8-6.9a31.46,31.46,0,0,0-13.43,1.51,14.33,14.33,0,0,0-3.4,1.73,7.66,7.66,0,0,0,0,12.78,21.26,21.26,0,0,0,6.76,2.9c3.87.92,7.86,1.32,11.79,2,3.69.66,7.38,1.31,11,2.15a29.08,29.08,0,0,1,12.55,6.74,17.88,17.88,0,0,1,6.19,14c0,9.58-4.14,16.88-12.09,22.1a35.26,35.26,0,0,1-15.41,5.57,133.58,133.58,0,0,1-13.87.61,32.85,32.85,0,0,1-12.37-2.51c-5.65-2.21-11.29-4.51-15.81-8.8A7.38,7.38,0,0,0,385.39,206.65Z"/><path class="cls-1" d="M808.77,218.5H789.05c0-1-.14-1.95-.14-2.87,0-10.56,0-21.12,0-31.67a9.85,9.85,0,0,0-1.48-5.41q-13.15-21.6-26.18-43.29c-.48-.8-.94-1.61-1.55-2.64H780c6.06,10,12.23,20.12,18.62,30.65.68-1,1.19-1.6,1.63-2.3,5.51-8.81,11-17.61,16.47-26.47a3.63,3.63,0,0,1,3.61-2c5.82.1,11.65,0,17.92,0-.55,1-.91,1.76-1.34,2.46q-13.24,21.71-26.54,43.36a10.42,10.42,0,0,0-1.63,5.85c.08,10.47,0,20.95,0,31.43Z"/><path class="cls-1" d="M558.7,132.64h17.73c.07.85.2,1.76.2,2.68,0,7.43,0,14.86,0,22.3v60.87c-6.13.26-12,.07-17.8.13C558.24,216.62,558.14,135.25,558.7,132.64Z"/><path class="cls-1" d="M197.18,61.64c-1.28-.61-.79-1.4-.49-2.11,1.06-2.5,2.15-5,3.23-7.47q10.77-24.81,21.55-49.62c.34-.79.72-1.58,1.12-2.44a14.08,14.08,0,0,1,5.14,1.81c-.31.78-.56,1.51-.89,2.22-8,17.21-16.08,34.41-24,51.65A11.44,11.44,0,0,1,197.18,61.64Z"/><path class="cls-1" d="M124.85,157.34c-13.83-.4-26.88,1.39-39.08,7.5S64.33,180.22,56.7,191.53a18.61,18.61,0,0,1-4.54-6.34,5,5,0,0,1,.28-4.41,15.43,15.43,0,0,1,1.39-2.23c7.87-10,17.37-17.84,29.34-22.41a56.74,56.74,0,0,1,24.44-3.61c4.29.31,8.55,1,12.8,1.61A6.12,6.12,0,0,1,124.85,157.34Z"/><path class="cls-1" d="M67.26,202.42l-7.12-5.77c.23-.52.36-.89.55-1.22,9.74-16.63,24-27.06,42.85-31.15,6.38-1.38,12.86-1.26,19.34-1l.24,0c2.62.43,4.29,1.11,3.35,4.86-1.62.2-3.34.44-5,.61-16,1.58-29.91,7.6-41.62,18.63a80.45,80.45,0,0,0-11.13,13.16C68.27,201.1,67.83,201.66,67.26,202.42Z"/><path class="cls-1" d="M50,174.69c-2.59-8.63.07-16.42,7.25-21.19,9.88-6.56,20.65-10.82,32.54-11.77a63.89,63.89,0,0,1,26.87,3.69,8.91,8.91,0,0,1,2.69,1.59c-13.13-1.15-26-.41-38.33,4.47S58.59,164.48,50,174.69Z"/><path class="cls-1" d="M72.68,204.7c9.42-17.93,34.55-32.61,53.33-30.23.88,2.54.22,4.68-2,5.92a11.54,11.54,0,0,1-3.12,1.18c-13.89,3.15-25.24,10.49-34.75,20.92-1,1.12-2.09,2.2-3.13,3.31a4.72,4.72,0,0,1-5.69,1.11C75.82,206.26,74.34,205.49,72.68,204.7Z"/><path class="cls-1" d="M56.28,148.09a13.85,13.85,0,0,1,3.59-6c5.67-6.08,12.79-9.49,20.83-11a38.12,38.12,0,0,1,20.78,1.38,20,20,0,0,1,8,5,18.57,18.57,0,0,1-2.12-.12,74.81,74.81,0,0,0-18.9-.67,66.87,66.87,0,0,0-30.15,10.1Z"/><path class="cls-1" d="M88.83,207.33a63.26,63.26,0,0,1,32.73-20.69l.52.48c-.64,1.42-1.18,2.89-1.93,4.25a24.52,24.52,0,0,1-6.07,7c-6.93,5.67-14.77,9.06-23.83,9.27-.31,0-.63,0-1-.07C89.24,207.6,89.18,207.54,88.83,207.33Z"/></g></g></svg>