<svg xmlns="http://www.w3.org/2000/svg" viewBox="0 0 820.87 153.67"><defs><style>.cls-1{fill:#835900;}.cls-2{fill:#fffd68;}</style></defs><title>hendryrun</title><g id="Layer_2" data-name="Layer 2"><g id="Layer_1-2" data-name="Layer 1"><path class="cls-1" d="M3.36,9l63.72,4.26.25,1.1L110.12,14c-.21,2.94-.41,5.76-.61,8.57l.27.07c.7-1.53,1.41-3.06,2.1-4.6,1.11-2.48,1.11-2.51,3.72-2.16,8.93,1.18,17.85,2.4,26.78,3.59q13.86,1.86,27.73,3.68a20,20,0,0,0,2.84.39c1.12,0,1.5.56,1.78,1.5.87,2.87,1.8,5.71,2.72,8.55.13.41.3.8.57,1.49.88-3.76,1.7-7.21,2.5-10.66.65-2.79,1.33-5.58,1.92-8.39.16-.75.45-.9,1.14-.76l19.21,3.85q15.35,3.08,30.69,6.17c.53.1,1,.29,1.68.48.11-2.12.23-4.24.35-6.42l56.31,2c0,1.05,0,2,0,2.92-.06,2-.18,4-.23,6q-.18,7.24-.31,14.49c0,.22.29.65.46.65,1.33.06,2.67,0,4.18,0-2.13-13.39-4.26-26.77-6.41-40.26l66.08,5.55c.05.68.13,1.38.14,2.08.09,4.43.18,8.86.23,13.3,0,.91.08,1.33,1.25,1.16,9.27-1.33,18.55-2.58,27.83-3.85l16-2.17a8.53,8.53,0,0,1,1.14,0l-1.85,6.33.22.3,1.53-.89a1.54,1.54,0,0,1,.7-.28c3.47.18,6.66-1.11,10-1.82,4.9-1.07,9.77-2.27,14.81-3.45.15,1.54.34,3,.41,4.43,0,.74.23,1.07,1,1.07,7,0,14,0,21,.06a5.09,5.09,0,0,0,.66-.09c.05-.57.1-1.12.17-1.94l63.55,3.89c-.44,2.37-.85,4.59-1.28,6.81q-3.2,16.55-6.42,33.1c-1.21,6.26-2.53,12.51-3.58,18.8a74.33,74.33,0,0,0-.53,8.46q-.46,8.79-.88,17.57c-.13,2.67-.2,5.34-.33,8-.28,5.9-.59,11.79-.87,17.68-.06,1.28-.09,2.56-.08,3.84,0,.7-.18,1.05-1,1.18q-16.35,2.61-32.69,5.29l-24.19,4c-.47.07-1,.1-1.58.16-.48-2.14-1-4.25-1.44-6.38q-3-13.77-6.1-27.56c-.1-.44,0-1-.87-1-.23,0-.57-.67-.7-1.07q-3.64-10.95-7.23-21.92c-.41-1.25-.83-2.5-1.21-3.75-.17-.58-.41-.88-1.09-.78l-19.65,2.74c-.07,0-.13.07-.37.21,4.41,15.33,8.83,30.71,13.32,46.3h-1.4q-29.82,0-59.64,0c-1,0-1.58-.12-1.6-1.3a13.54,13.54,0,0,0-.52-2.42L308,151.56c-.51-4.71-1-9.24-1.51-14l-38.8,12.82c.18-6.24.35-12.32.52-18.54-2.69.4-5.24.77-7.79,1.16-6.38,1-12.75,2-19.14,2.94a1.31,1.31,0,0,1-1.06-.61c-.66-1.55-1.64-1.91-3.36-1.75-7.14.7-14.3,1.18-21.46,1.73-4.68.36-9.38.68-14.06,1l-18.6,1.41c-.27,0-.54,0-.88,0v-4.56c-1,.17-2.07.33-3.1.51L142,140.16c-5.22.92-10.44,1.84-15.65,2.82a1.78,1.78,0,0,1-2.1-1q-5.73-9.27-11.53-18.49a1,1,0,0,0-.68-.4c.56,4.28,1.12,8.57,1.68,12.81-2.4,0-4.78,0-7.17,0-4.91-.08-9.82-.21-14.73-.29-5.63-.1-11.27-.16-16.9-.25-1.68,0-3.35-.09-5-.17-1-.05-1.21.26-1.12,1.25.23,2.34.29,4.7.41,7A3,3,0,0,1,69,144c-1.92-.18-3.82-.34-5.71-.55l-14.49-1.62Q40.4,140.89,32,140l-14-1.51c-5.63-.61-11.25-1.28-16.87-1.83-1.09-.1-1.11-.59-1-1.38q.49-6.44,1-12.88Q1.74,112.2,2.48,102C3,95.59,3.33,89.18,4,82.8a160.9,160.9,0,0,0,.61-19.26Q4.31,52.4,4.08,41.27c-.08-3.72-.15-7.43-.24-11.15l-.48-19.4C3.35,10.25,3.36,9.78,3.36,9ZM68.15,77.09a13,13,0,0,1,0,1.4q-2,17.72-4.12,35.43c-.11.92.07,1.22,1,1.23,3.35,0,6.71.16,10.06.22,5.19.1,10.39.17,15.58.24,1.51,0,3,0,4.64,0,0-.47,0-.9-.09-1.32q-.66-5-1.35-10.08C92.7,95.47,91.5,86.73,90.36,78a48.23,48.23,0,0,1-.72-7.73c.16-4.7.68-9.39,1-14.08q.89-11.7,1.74-23.4c.16-2.21.31-4.42.47-6.78-.6,0-1,0-1.46,0-1.88.05-3.75.13-5.63.14-7.2.05-14.4.06-21.59.11-.62,0-1.24.12-1.92.19.83,10.21,1.65,20.26,2.48,30.46l-16.1,1c.59-11.38,1.17-22.52,1.75-33.76L19.54,22.07c0,.61,0,1,0,1.47.13,5.15.27,10.3.38,15.45.1,4.91.17,9.83.25,14.74,0,2,0,4,.11,6a127.26,127.26,0,0,1-.37,18.42Q19,89.84,18.1,101.54q-.59,7.75-1.19,15.5c-.08.94.09,1.4,1.21,1.52,9.37,1,18.73,2,28.09,3,1.93.21,3.86.4,6,.61-.84-14.65-1.66-29.12-2.49-43.67Zm205.51,33.78c.64-26.12,1.28-52.12,1.93-78.42-2,0-3.84.06-5.66,0q-9-.3-18.06-.69c-.84,0-1.2.17-1.23,1.11-.19,5.07-.47,10.13-.69,15.19-.29,6.86-.55,13.72-.83,20.58,0,1-.16,2.07-.25,3.3-.27-.32-.38-.43-.47-.56Q237,54.09,225.71,36.81a2.85,2.85,0,0,0-2-1.32c-7.48-1.46-14.95-3-22.43-4.45l-6.52-1.28a5.11,5.11,0,0,0-.2.58C192.79,38,191,45.58,189.24,53.2c-.15.66.08.92.61,1.2,3.15,1.65,6.29,3.31,9.4,5a1.72,1.72,0,0,1,.85,1.21c0,2.79-.21,5.57-.31,8.36-.17,4.59-.34,9.18-.48,13.77-.21,6.58-.38,13.17-.59,19.75-.09,2.87-.27,5.74-.36,8.61-.05,1.78,0,3.56,0,5.46l30.79-2.36C228,102,226.91,89.93,225.81,77.85a1,1,0,0,1,.65.45L231.14,86q8.51,14,17,27.93a1.25,1.25,0,0,0,1.54.67c2.24-.4,4.5-.69,6.75-1ZM140.15,83c.46-.14.83-.28,1.2-.38l32.05-9c.74-.21,1.31-.3,1-1.41-3.79-11.65-7.62-23.29-11.17-35-.78-2.56-2-3.3-4.46-3.6-11.72-1.45-23.42-3.08-35.12-4.67a1.16,1.16,0,0,0-1.46.78Q112.6,51,103,72.39a2,2,0,0,0,.17,2.09q14.34,22.83,28.61,45.71a2.24,2.24,0,0,0,2.78,1.16c12.93-2.32,25.87-4.57,38.8-6.85l7.17-1.29c-.84-10-1.68-19.81-2.52-29.73l-22.55,4.16,3.64,8.81c-4.23.66-8.32,1.31-12.41,1.9-.25,0-.7-.31-.82-.58-.62-1.47-1.18-3-1.75-4.46C142.79,89.89,141.49,86.46,140.15,83Zm144,41.2,36-11.9c.51,4.7,1,9.24,1.5,13.89.6-.16,1-.26,1.42-.39l16.35-5.46c2.68-.89,2.64-.89,2.58-3.68-.18-7.75-.33-15.49-.49-23.24L341.09,71q-.24-11.56-.48-23.13-.19-10.49-.33-21c0-1.82,0-3.65,0-5.5L308.45,18.7l6.3,39.65-28.63-1.3C285.48,79.5,284.85,101.69,284.2,124.16ZM423.86,38.72c6.15,18.71,12.27,37.31,18.43,56L465.65,87c-.07,1.56-.15,2.9-.18,4.24-.12,5.23-.25,10.46-.33,15.69,0,1-.38,1.35-1.41,1.34-4.8,0-9.6,0-14.4,0H448c1.75,7.91,3.46,15.6,5.17,23.33l1.13-.15,11.11-1.8,18.55-3c.58-.09,1.06-.16,1.08-1,0-1.83.15-3.67.23-5.5.19-4.63.37-9.25.58-13.88q.4-8.79.86-17.57a56.78,56.78,0,0,1,.51-7.16c2-10.76,4.1-21.49,6.17-32.23.61-3.16,1.22-6.33,1.88-9.72l-29-1.78c-.21,10.47-.41,20.83-.61,31.32l-11.87,1.14c-.7-4.39-1.36-8.6-2-12.81-.93-5.84-1.87-11.67-2.78-17.51-.1-.65-.24-1.08-1.07-1.07-2.4,0-4.8-.11-7.19-.12-4.72,0-9.44,0-14.16,0Zm-73,1.36c.08.53.11.88.18,1.23q2.34,12.11,4.7,24.22,5.24,26.91,10.44,53.83c.19,1,.6,1.17,1.49,1.16q12.78,0,25.55,0h1.33c-5.16-18-10.27-35.72-15.42-53.61l14.65-4.54V75c1.13-.13,2-.22,2.93-.35,6.36-.87,12.72-1.75,19.09-2.6.73-.09,1-.32.85-1-.2-1.66-.31-3.34-.47-5L414,42.88c-.18-1.89-.36-3.79-.56-5.83l-36.2,8.47c.95-3.28,1.82-6.27,2.74-9.43Z"/><path class="cls-1" d="M818.34,128.56c-6.81,1.06-13.51,2.12-20.21,3.14-9.18,1.41-18.36,2.79-27.54,4.23-.71.11-1.06-.07-1.3-.64-.6-1.41-1.47-1.86-3.15-1.71-8,.72-16,1.23-24,1.82q-9.3.71-18.59,1.44l-8.09.66V142l-65.1-3.66-1.85-18.77-7,2.33c-.14-.65-.26-1.17-.45-2l-23.77,33-16.72-16.27V139c-2,0-4.06,0-6.09,0q-8.75.1-17.5.24-8.21.1-16.42.24l-13.78.23-14.49.25c-1,0-2.06.14-3.32.22.32-1.7.59-3.24.89-4.77q4.24-21.84,8.48-43.66,2-10.52,4-21a3.86,3.86,0,0,0-.15-1.75Q535,44.6,527.77,20.26c-.26-.87-.18-1.16.79-1.31,13.11-2.1,26.2-4.26,39.3-6.38Q585.28,9.76,602.68,7L642,.58C643.3.37,644.63.2,646,0c-.22,3.92-.42,7.69-.65,11.47-.1,1.7-.24,3.41-.39,5.12-.13,1.44,0,1.64,1.39,1.89q11.94,2.13,23.89,4.26a2.43,2.43,0,0,0,.93,0q26.63-6.13,53.25-12.3c.42-.09.86-.15,1.33-.23,0,2.2,0,4.35,0,6.5,0,.9.26,1.21,1.16,1.39q18.06,3.54,36.09,7.19a13.61,13.61,0,0,1,1.37.45c.12-2.15.23-4.27.35-6.41l56.16,2c0,2.46,0,4.77,0,7.07-.07,3.71-.21,7.42-.29,11.14-.1,4.35-.15,8.7-.25,13q-.22,9.76-.48,19.52l-.48,19.76q-.24,9.65-.48,19.28C818.7,116.91,818.52,122.69,818.34,128.56ZM632.86,102.89,597.69,85.67l7.1-2.57c5.67-2,11.34-4.09,17-6.09a1.55,1.55,0,0,0,1.24-1.71c0-1.12.12-2.23.19-3.35.28-4.74.54-9.48.83-14.22.35-5.69.73-11.38,1.09-17.08.31-4.93.63-9.87.93-14.8.09-1.46.14-2.92.22-4.56l-81,13.1c.14.54.22.92.33,1.29q5.21,17.51,10.42,35a3,3,0,0,1,.11,1.38q-4.53,23.6-9.09,47.17c-.45,2.29-.89,4.59-1.36,7l34.91-.6c-.88-9.49-1.74-18.75-2.62-28.28L612.59,131ZM775.5,78.14l-.26.07L773,74.73Q762.55,58.91,752.12,43.1A2.79,2.79,0,0,0,750.54,42c-7.46-1.54-14.94-3-22.42-4.51l-6.8-1.34c-.13.44-.24.73-.31,1-1.71,7.39-3.38,14.79-5.14,22.16A1.18,1.18,0,0,0,716.6,61c2.72,1.42,5.41,2.92,8.16,4.29,1.28.65,2,1.19,1.9,3-.39,4.57-.4,9.17-.55,13.76-.25,7.74-.48,15.48-.73,23.22-.14,4.11-.33,8.22-.46,12.33,0,1.78,0,3.57,0,5.48,2.46-.2,4.88-.41,7.29-.59q11.28-.84,22.56-1.68c.71,0,.92-.28.84-1-.37-3.57-.66-7.15-1-10.72-.54-6-1.1-11.92-1.64-17.88-.21-2.27-.39-4.55-.59-6.82a2.6,2.6,0,0,1,1,1q10.51,17.24,21,34.49a2.13,2.13,0,0,0,2.57,1.18c5.08-.84,10.17-1.57,15.26-2.36,2.66-.41,5.33-.85,8.08-1.29q1-39.16,1.91-78.13c-1-.08-1.8-.15-2.59-.19l-8.86-.32c-4.07-.14-8.14-.25-12.2-.41-.88,0-1.28.16-1.3,1.18,0,2.83-.18,5.66-.31,8.49-.28,6.14-.58,12.28-.86,18.42C775.84,70.26,775.68,74.2,775.5,78.14ZM707.07,32.55l-22.54,5.2c.15,11.55.3,23,.44,34.42L668.2,78.66c0-.4,0-.59,0-.79.33-5.17.65-10.35,1-15.52.42-6.29.83-12.58,1.35-18.86.12-1.37-.33-1.73-1.58-1.94-8.14-1.4-16.27-2.89-24.41-4.34-1.47-.27-2.94-.5-4.59-.78,3.8,22.42,7.57,44.62,11.36,67L685,92.1c.22,2.59.44,5,.66,7.59l21-2.67C706.77,75.53,706.92,54.16,707.07,32.55Zm-10.74,95c-.25-7.31-.49-14.5-.74-21.79l-34.89,4.58,1.5,15.29Z"/><path class="cls-2" d="M68.15,77.09,49.69,78.54c.83,14.55,1.65,29,2.49,43.67-2.11-.21-4-.4-6-.61-9.36-1-18.72-2.08-28.09-3-1.12-.12-1.29-.58-1.21-1.52q.61-7.74,1.19-15.5.9-11.7,1.81-23.39a127.26,127.26,0,0,0,.37-18.42c-.13-2-.08-4-.11-6C20.09,48.82,20,43.9,19.92,39c-.11-5.15-.25-10.3-.38-15.45,0-.43,0-.86,0-1.47l30.87,2.07c-.58,11.24-1.16,22.38-1.75,33.76l16.1-1c-.83-10.2-1.65-20.25-2.48-30.46.68-.07,1.3-.19,1.92-.19,7.19-.05,14.39-.06,21.59-.11,1.88,0,3.75-.09,5.63-.14.43,0,.86,0,1.46,0-.16,2.36-.31,4.57-.47,6.78q-.85,11.7-1.74,23.4c-.35,4.69-.87,9.38-1,14.08A48.23,48.23,0,0,0,90.36,78c1.14,8.74,2.34,17.48,3.51,26.23q.69,5,1.35,10.08c.06.42.06.85.09,1.32-1.62,0-3.13,0-4.64,0-5.19-.07-10.39-.14-15.58-.24-3.35-.06-6.71-.18-10.06-.22-.93,0-1.11-.31-1-1.23q2.1-17.7,4.12-35.43A13,13,0,0,0,68.15,77.09Z"/><path class="cls-2" d="M273.66,110.87l-17.21,2.66c-2.25.35-4.51.64-6.75,1a1.25,1.25,0,0,1-1.54-.67q-8.49-14-17-27.93l-4.68-7.67a1,1,0,0,0-.65-.45c1.1,12.08,2.21,24.16,3.33,36.37l-30.79,2.36c0-1.9,0-3.68,0-5.46.09-2.87.27-5.74.36-8.61.21-6.58.38-13.17.59-19.75.14-4.59.31-9.18.48-13.77.1-2.79.27-5.57.31-8.36a1.72,1.72,0,0,0-.85-1.21c-3.11-1.71-6.25-3.37-9.4-5-.53-.28-.76-.54-.61-1.2,1.79-7.62,3.55-15.24,5.33-22.86a5.11,5.11,0,0,1,.2-.58L201.29,31c7.48,1.49,15,3,22.43,4.45a2.85,2.85,0,0,1,2,1.32Q237,54.11,248.4,71.37c.09.13.2.24.47.56.09-1.23.21-2.27.25-3.3.28-6.86.54-13.72.83-20.58.22-5.06.5-10.12.69-15.19,0-.94.39-1.14,1.23-1.11q9,.38,18.06.69c1.82.07,3.65,0,5.66,0C274.94,58.75,274.3,84.75,273.66,110.87Z"/><path class="cls-2" d="M140.15,83c1.34,3.5,2.64,6.93,3.95,10.35.57,1.5,1.13,3,1.75,4.46.12.27.57.62.82.58,4.09-.59,8.18-1.24,12.41-1.9l-3.64-8.81L178,83.48c.84,9.92,1.68,19.75,2.52,29.73l-7.17,1.29c-12.93,2.28-25.87,4.53-38.8,6.85a2.24,2.24,0,0,1-2.78-1.16q-14.23-22.9-28.61-45.71a2,2,0,0,1-.17-2.09Q112.6,51,122.15,29.67a1.16,1.16,0,0,1,1.46-.78c11.7,1.59,23.4,3.22,35.12,4.67,2.45.3,3.68,1,4.46,3.6,3.55,11.72,7.38,23.36,11.17,35,.35,1.11-.22,1.2-1,1.41l-32.05,9C141,82.68,140.61,82.82,140.15,83Zm.32-35.52c-1.72,2.47-3.4,4.84-5,7.26a2.4,2.4,0,0,0-.3,1.62c.83,4.51,1.76,9,2.6,13.51.17.9.49,1.09,1.36.87q6-1.52,12-2.94c.75-.18,1-.5.88-1.25a97.08,97.08,0,0,1-1.06-9.73,5.34,5.34,0,0,0-3.48-5.26C145.05,50.37,142.83,48.85,140.47,47.44Z"/><path class="cls-2" d="M284.2,124.16c.65-22.47,1.28-44.66,1.92-67.11l28.63,1.3-6.3-39.65,31.83,2.68c0,1.85,0,3.68,0,5.5q.15,10.48.33,21,.22,11.57.48,23.13l.48,22.4c.16,7.75.31,15.49.49,23.24.06,2.79.1,2.79-2.58,3.68l-16.35,5.46c-.4.13-.82.23-1.42.39-.5-4.65-1-9.19-1.5-13.89Zm21.36-23.51c4.41-1.32,8.61-2.57,12.79-3.88a1.25,1.25,0,0,0,.54-1.07c-.9-6.4-1.87-12.79-2.78-19.19-.11-.76-.36-.89-1.08-.79-2.7.33-5.4.58-8.1.88-1.32.15-2.64.34-4,.52C303.82,85,304.68,92.73,305.56,100.65Z"/><path class="cls-2" d="M423.86,38.72h2.66c4.72,0,9.44,0,14.16,0,2.39,0,4.79.13,7.19.12.83,0,1,.42,1.07,1.07.91,5.84,1.85,11.67,2.78,17.51.67,4.21,1.33,8.42,2,12.81l11.87-1.14c.2-10.49.4-20.85.61-31.32l29,1.78c-.66,3.39-1.27,6.56-1.88,9.72-2.07,10.74-4.19,21.47-6.17,32.23a56.78,56.78,0,0,0-.51,7.16q-.45,8.77-.86,17.57c-.21,4.63-.39,9.25-.58,13.88-.08,1.83-.2,3.67-.23,5.5,0,.8-.5.87-1.08,1l-18.55,3-11.11,1.8-1.13.15c-1.71-7.73-3.42-15.42-5.17-23.33h1.36c4.8,0,9.6,0,14.4,0,1,0,1.4-.29,1.41-1.34.08-5.23.21-10.46.33-15.69,0-1.34.11-2.68.18-4.24l-23.36,7.77C436.13,76,430,57.43,423.86,38.72Z"/><path class="cls-2" d="M350.83,40.08l29.14-4c-.92,3.16-1.79,6.15-2.74,9.43l36.2-8.47c.2,2,.38,3.94.56,5.83L416.15,66c.16,1.67.27,3.35.47,5,.1.73-.12,1-.85,1-6.37.85-12.73,1.73-19.09,2.6-.9.13-1.8.22-2.93.35V62.36L379.1,66.9c5.15,17.89,10.26,35.66,15.42,53.61h-1.33q-12.76,0-25.55,0c-.89,0-1.3-.14-1.49-1.16Q361,92.44,355.71,65.53q-2.35-12.12-4.7-24.22C350.94,41,350.91,40.61,350.83,40.08Z"/><path class="cls-2" d="M632.86,102.89,612.59,131,578,97.38c.88,9.53,1.74,18.79,2.62,28.28l-34.91.6c.47-2.44.91-4.74,1.36-7q4.54-23.58,9.09-47.17a3,3,0,0,0-.11-1.38q-5.19-17.51-10.42-35c-.11-.37-.19-.75-.33-1.29l81-13.1c-.08,1.64-.13,3.1-.22,4.56-.3,4.93-.62,9.87-.93,14.8-.36,5.7-.74,11.39-1.09,17.08-.29,4.74-.55,9.48-.83,14.22-.07,1.12-.22,2.23-.19,3.35A1.55,1.55,0,0,1,621.81,77c-5.68,2-11.35,4-17,6.09l-7.1,2.57ZM573.31,46.8C575.23,55.33,577.1,63.62,579,72c7.4-1.84,14.71-3.68,22-5.48.83-.21.77-.77.77-1.37,0-4.64,0-9.28,0-13.92,0-1.1-.38-1.39-1.43-1.5-7.18-.74-14.35-1.55-21.53-2.32C577.08,47.16,575.3,47,573.31,46.8Z"/><path class="cls-2" d="M775.5,78.14c.18-3.94.34-7.88.52-11.82.28-6.14.58-12.28.86-18.42.13-2.83.27-5.66.31-8.49,0-1,.42-1.21,1.3-1.18,4.06.16,8.13.27,12.2.41l8.86.32c.79,0,1.58.11,2.59.19q-1,39-1.91,78.13c-2.75.44-5.42.88-8.08,1.29-5.09.79-10.18,1.52-15.26,2.36a2.13,2.13,0,0,1-2.57-1.18q-10.44-17.27-21-34.49a2.6,2.6,0,0,0-1-1c.2,2.27.38,4.55.59,6.82.54,6,1.1,11.92,1.64,17.88.33,3.57.62,7.15,1,10.72.08.77-.13,1-.84,1q-11.28.82-22.56,1.68c-2.41.18-4.83.39-7.29.59,0-1.91,0-3.7,0-5.48.13-4.11.32-8.22.46-12.33.25-7.74.48-15.48.73-23.22.15-4.59.16-9.19.55-13.76.15-1.78-.62-2.32-1.9-3-2.75-1.37-5.44-2.87-8.16-4.29a1.18,1.18,0,0,1-.73-1.58C717.63,52,719.3,44.62,721,37.23c.07-.31.18-.6.31-1l6.8,1.34c7.48,1.49,15,3,22.42,4.51a2.79,2.79,0,0,1,1.58,1.06Q762.58,58.9,773,74.73l2.28,3.48Z"/><path class="cls-2" d="M707.07,32.55c-.15,21.61-.3,43-.46,64.47l-21,2.67c-.22-2.56-.44-5-.66-7.59l-33.62,11.29c-3.79-22.34-7.56-44.54-11.36-67,1.65.28,3.12.51,4.59.78,8.14,1.45,16.27,2.94,24.41,4.34,1.25.21,1.7.57,1.58,1.94-.52,6.28-.93,12.57-1.35,18.86-.35,5.17-.67,10.35-1,15.52,0,.2,0,.39,0,.79L685,72.17c-.14-11.45-.29-22.87-.44-34.42Z"/><path class="cls-2" d="M696.33,127.58l-34.13-1.92-1.5-15.29,34.89-4.58C695.84,113.08,696.08,120.27,696.33,127.58Z"/><path class="cls-1" d="M140.47,47.44c2.36,1.41,4.58,2.93,7,4.08a5.34,5.34,0,0,1,3.48,5.26A97.08,97.08,0,0,0,152,66.51c.09.75-.13,1.07-.88,1.25q-6,1.42-12,2.94c-.87.22-1.19,0-1.36-.87-.84-4.51-1.77-9-2.6-13.51a2.4,2.4,0,0,1,.3-1.62C137.07,52.28,138.75,49.91,140.47,47.44Z"/><path class="cls-1" d="M305.56,100.65c-.88-7.92-1.74-15.64-2.62-23.53,1.35-.18,2.67-.37,4-.52,2.7-.3,5.4-.55,8.1-.88.72-.1,1,0,1.08.79.91,6.4,1.88,12.79,2.78,19.19a1.25,1.25,0,0,1-.54,1.07C314.17,98.08,310,99.33,305.56,100.65Z"/><path class="cls-1" d="M573.31,46.8c2,.2,3.77.36,5.54.56,7.18.77,14.35,1.58,21.53,2.32,1,.11,1.44.4,1.43,1.5-.06,4.64,0,9.28,0,13.92,0,.6.06,1.16-.77,1.37-7.32,1.8-14.63,3.64-22,5.48C577.1,63.62,575.23,55.33,573.31,46.8Z"/></g></g></svg>